<?xml version="1.0" encoding="UTF-8"?>
<svg width="50px" height="50px" viewBox="0 0 50 50" version="1.1" xmlns="http://www.w3.org/2000/svg" xmlns:xlink="http://www.w3.org/1999/xlink">
    <!-- Generator: sketchtool 51.2 (57519) - http://www.bohemiancoding.com/sketch -->
    <title>D4BB08A1-3612-44B3-84D1-A90A8A67BE9F</title>
    <desc>Created with sketchtool.</desc>
    <defs></defs>
    <g id="design" stroke="none" stroke-width="1" fill="none" fill-rule="evenodd">
        <g id="Desktop-disconnected" transform="translate(-1102.000000, -2579.000000)">
            <g id="footer" transform="translate(0.000000, 2495.000000)">
                <g id="Telegram" transform="translate(1102.000000, 84.000000)">
                    <circle id="Oval-1-Copy-58" fill="#FFFFFF" cx="25" cy="25" r="25"></circle>
                    <g id="Group-76" transform="translate(10.000000, 12.857143)" fill="#0564C4">
                        <path d="M11.3636364,25.5519481 C10.4772727,25.5519481 10.6363636,25.211039 10.3181818,24.3701299 L7.72727273,15.8246753 L23.8181818,5.77922078 L25.7045455,6.27922078 L24.1363636,10.5519481 L11.3636364,25.5519481 L11.3636364,25.5519481 Z" id="path2993"></path>
                        <path d="M11.8181818,16.4545455 L22.8181818,24.5681818 C24.0681818,25.25 24.9772727,24.9090909 25.2954545,23.4090909 L29.7727273,2.31818182 C30.2272727,0.477272727 29.0681818,-0.340909091 27.8636364,0.204545455 L1.59090909,10.3409091 C-0.204545455,11.0681818 -0.181818182,12.0681818 1.27272727,12.5 L8.02272727,14.6136364 L23.6363636,4.77272727 C24.3636364,4.31818182 25.0454545,4.56818182 24.5,5.06818182 L11.8181818,16.4545455 L11.8181818,16.4545455 Z" id="path2991"></path>
                    </g>
                </g>
            </g>
        </g>
    </g>
</svg>